<svg version="1.0" xmlns="http://www.w3.org/2000/svg" width="1000.000000pt" height="625.000000pt" viewBox="0 0 1000.000000 625.000000" preserveAspectRatio="xMidYMid meet">

<g transform="translate(0.000000,625.000000) scale(0.100000,-0.100000)" fill="#7c4e29" stroke="none">
<path d="M4775 6239 c-695 -49 -1374 -343 -1886 -815 -780 -719 -1142 -1770 -968 -2812 217 -1305 1239 -2336 2539 -2561 208 -36 312 -45 545 -44 323 0 588 37 877 123 1085 321 1917 1207 2163 2306 58 260 69 365 69 684 1 316 -8 403 -60 654 -193 916 -795 1701 -1632 2129 -513 263 -1074 377 -1647 336z m-59 -404 c14 -21 15 -31 6 -50 -22 -47 -102 -27 -102 24 0 18 39 51 60 51 11 0 27 -11 36 -25z m-572 -202 c16 -49 33 -99 38 -112 l9 -25 18 31 c40 65 114 97 172 73 39 -16 71 -73 113 -197 32 -96 34 -98 67 -103 21 -3 35 -11 37 -21 2 -13 -18 -24 -87 -47 -80 -27 -90 -28 -96 -14 -4 11 2 23 16 35 l21 17 -32 93 c-59 170 -77 191 -145 163 -65 -28 -70 -74 -23 -218 30 -92 34 -98 59 -98 28 0 48 -27 26 -35 -48 -18 -162 -55 -169 -55 -17 0 -7 38 13 52 l22 14 -75 225 c-73 220 -75 224 -104 227 -26 4 -43 16 -44 34 0 6 104 46 125 47 6 1 24 -38 39 -86z m1016 69 c59 -29 80 -85 80 -213 0 -125 4 -139 36 -139 33 0 31 -28 -3 -41 -15 -5 -43 -9 -62 -7 -32 3 -37 6 -41 37 l-5 33 -20 -22 c-31 -34 -70 -50 -123 -50 -40 0 -54 5 -76 26 -29 30 -34 75 -14 119 15 33 83 69 161 85 53 11 57 13 57 39 0 68 -32 111 -82 111 -38 0 -50 -13 -39 -42 7 -19 6 -31 -5 -47 -28 -40 -84 -16 -84 36 0 29 49 79 83 86 51 10 104 6 137 -11z m803 6 c22 -7 56 -27 74 -46 30 -30 36 -32 51 -20 22 18 52 12 52 -11 0 -14 -38 -140 -45 -149 -2 -2 -14 0 -29 4 -23 5 -26 11 -26 46 0 54 -24 94 -70 118 -86 44 -155 14 -208 -90 -97 -193 -48 -340 114 -340 41 0 51 5 87 40 28 29 45 39 58 35 24 -8 24 -16 -3 -51 -55 -71 -118 -94 -202 -75 -135 30 -203 120 -194 255 8 117 72 231 157 276 42 22 124 26 184 8z m-1207 -144 c12 -71 24 -150 28 -176 7 -45 9 -48 37 -48 22 0 29 -5 29 -20 0 -14 -9 -21 -32 -24 -18 -3 -60 -10 -92 -16 -46 -8 -62 -7 -68 2 -12 20 -10 23 20 39 l29 14 -23 140 c-13 77 -23 143 -23 147 -1 3 -14 9 -31 13 -20 4 -30 13 -30 25 0 14 12 20 58 28 31 5 62 8 67 7 6 -1 20 -60 31 -131z m-942 -81 c4 -10 14 -28 24 -41 l18 -24 38 23 c32 18 39 20 47 8 14 -22 11 -26 -30 -51 l-39 -23 68 -123 c37 -68 72 -128 79 -135 8 -8 20 -7 45 6 54 25 54 -3 1 -52 -78 -72 -90 -64 -188 119 -79 149 -77 146 -114 126 -29 -14 -32 -14 -37 1 -5 11 2 24 21 38 l27 22 -17 43 c-16 41 -16 43 6 61 28 23 44 24 51 2z m2619 -139 c23 -16 52 -45 64 -63 74 -109 -50 -325 -185 -325 -84 1 -181 72 -197 144 -19 87 49 216 140 265 46 25 126 15 178 -21z m-2786 -155 c105 -51 173 -203 128 -288 -21 -42 -93 -100 -137 -112 -149 -40 -321 195 -235 322 12 19 44 49 71 67 58 39 109 42 173 11z m3303 -4 c39 -20 70 -62 70 -96 0 -28 -30 -69 -50 -69 -13 0 -50 37 -50 49 0 5 11 18 24 28 32 25 18 53 -26 53 -24 0 -40 -10 -70 -42 l-40 -43 39 -32 c36 -30 37 -33 21 -49 -16 -16 -19 -15 -54 13 l-37 30 -99 -113 c-54 -62 -98 -116 -98 -120 0 -4 10 -18 21 -30 20 -22 21 -54 1 -54 -16 0 -163 132 -159 144 4 11 31 13 57 3 10 -4 47 31 114 109 l98 115 -26 28 c-20 21 -23 30 -14 39 9 9 19 7 43 -8 l32 -20 19 22 c50 56 125 74 184 43z m-3696 -266 c27 -22 34 -57 14 -77 -15 -15 -54 -16 -63 -2 -15 24 -27 8 -22 -26 9 -51 44 -101 121 -168 l66 -58 31 26 c25 21 34 24 45 15 16 -13 23 -4 -70 -111 -38 -43 -63 -65 -73 -61 -14 5 -14 18 1 54 5 11 -26 44 -109 118 -112 99 -117 103 -135 86 -18 -16 -51 -15 -50 2 1 4 18 27 38 50 l37 43 39 -27 c31 -20 38 -22 33 -9 -26 68 -13 130 33 153 33 17 33 16 64 -8z m3969 -11 c31 -22 57 -67 57 -98 0 -11 -11 -32 -25 -46 -24 -24 -28 -25 -48 -11 -32 21 -33 52 -3 72 21 14 24 21 15 36 -15 28 -59 23 -107 -12 -23 -17 -42 -33 -42 -36 0 -4 12 -22 26 -40 25 -33 25 -36 10 -51 -16 -16 -19 -15 -44 16 -15 18 -31 32 -35 32 -9 0 -227 -190 -227 -198 0 -2 9 -19 20 -37 18 -29 18 -34 5 -45 -9 -8 -19 -9 -24 -4 -4 5 -35 41 -69 80 -34 39 -62 76 -62 82 0 20 19 23 45 6 25 -16 25 -16 126 72 55 49 108 95 117 101 14 12 13 15 -8 38 -21 23 -22 27 -9 40 13 14 18 13 38 -9 l24 -25 30 21 c70 50 134 55 190 16z m4 -349 c87 -33 138 -151 98 -228 -13 -27 -91 -101 -104 -101 -3 0 -38 50 -78 110 l-71 109 -26 -20 c-38 -30 -59 -75 -51 -110 9 -41 49 -86 90 -99 25 -8 35 -18 35 -32 0 -18 -4 -19 -37 -13 -81 14 -149 84 -160 163 -8 57 2 86 44 133 73 81 182 118 260 88z m-4217 -19 c19 -5 47 -18 62 -28 l27 -18 -65 -109 c-35 -60 -64 -112 -64 -115 0 -25 105 -39 141 -20 29 16 52 69 53 125 1 39 5 50 18 53 20 4 33 -32 32 -94 -1 -76 -69 -162 -143 -181 -65 -16 -207 59 -248 132 -51 90 -12 209 82 251 36 16 59 17 105 4z m-402 -249 c8 -5 12 -21 11 -39 -3 -27 10 -47 98 -150 95 -112 105 -120 165 -142 35 -12 68 -25 75 -27 6 -2 19 9 28 25 12 20 23 28 36 25 11 -3 19 -8 19 -12 0 -7 -69 -192 -76 -203 -3 -4 -11 -5 -19 -1 -10 3 -15 19 -15 43 0 38 -1 38 -65 63 l-65 25 -162 -23 c-149 -22 -165 -26 -184 -50 -14 -18 -26 -24 -38 -19 -9 4 -15 12 -13 18 58 159 71 186 88 186 15 0 19 -8 19 -36 0 -35 1 -36 33 -30 17 3 73 11 124 17 l92 11 -81 94 c-45 52 -84 94 -87 94 -3 0 -12 -9 -19 -20 -12 -21 -37 -27 -46 -12 -6 10 54 172 63 172 3 0 12 -4 19 -9z m2445 -65 c173 -33 300 -82 366 -142 62 -56 71 -79 71 -188 0 -89 2 -97 23 -111 21 -13 37 -14 120 -3 157 20 257 -10 346 -101 112 -115 148 -272 121 -529 -32 -307 -184 -490 -472 -567 -130 -35 -138 -44 -138 -167 0 -61 -5 -111 -14 -131 -50 -118 -299 -238 -570 -276 -126 -18 -349 -14 -478 9 -259 44 -468 151 -519 265 -18 38 -19 86 -19 868 0 673 3 834 14 860 41 99 233 185 495 222 133 19 533 13 654 -9z m2396 -94 c51 -26 92 -82 98 -136 7 -58 -1 -87 -34 -127 -23 -27 -110 -77 -117 -67 -1 1 -24 56 -51 121 -26 64 -50 117 -52 117 -14 0 -64 -34 -77 -52 -37 -52 -9 -141 55 -173 31 -16 34 -22 20 -43 -7 -11 -16 -10 -47 6 -72 37 -114 102 -114 177 0 83 51 141 153 176 66 23 123 24 166 1z m-4755 -1024 c35 -49 6 -108 -53 -110 -59 -2 -90 60 -55 110 11 16 25 22 54 22 29 0 43 -6 54 -22z m4875 -10 c31 -55 -20 -117 -80 -96 -80 28 -56 133 29 126 27 -2 40 -10 51 -30z m-204 -684 c33 -8 64 -19 68 -23 5 -5 -8 -54 -28 -110 -20 -56 -33 -105 -30 -111 10 -17 93 -23 126 -9 40 16 63 67 54 120 -6 35 -5 39 14 39 41 0 40 -113 -1 -165 -45 -57 -117 -68 -220 -34 -158 52 -228 157 -165 250 21 31 68 57 107 58 9 1 43 -6 75 -15z m-4419 -34 c47 -44 64 -103 44 -154 -14 -38 -43 -24 -37 18 6 39 -15 91 -41 105 -32 17 -103 13 -166 -9 -143 -49 -180 -115 -109 -192 25 -26 24 -48 -1 -48 -7 0 -25 13 -41 30 -36 37 -45 111 -21 158 36 69 161 124 273 119 60 -2 76 -6 99 -27z m4214 -345 c132 -69 247 -125 255 -125 9 0 18 7 21 15 9 21 44 19 44 -3 0 -33 -29 -62 -62 -62 -20 0 -116 44 -272 126 -132 69 -242 127 -244 129 -5 5 8 45 14 45 3 0 113 -56 244 -125z m-4070 30 c89 -85 45 -202 -105 -276 -112 -55 -202 -49 -254 17 -71 90 -8 202 152 272 76 33 165 27 207 -13z m3778 -96 c3 -28 -16 -43 -42 -33 -38 14 -22 68 18 62 14 -2 22 -12 24 -29z m298 -184 c159 -104 175 -117 163 -133 -7 -9 -14 -18 -15 -20 -2 -4 -354 227 -354 232 0 13 13 36 21 36 5 0 88 -52 185 -115z m-3752 63 c29 -12 54 -47 66 -88 7 -23 5 -29 -12 -33 -14 -4 -22 2 -29 21 -30 79 -61 80 -158 6 -2 -2 9 -20 24 -40 22 -29 25 -38 14 -45 -21 -13 -26 -11 -49 22 -12 16 -28 28 -35 25 -7 -2 -79 -52 -160 -111 -136 -99 -148 -105 -160 -88 -7 10 -11 21 -9 24 2 4 63 50 136 102 73 53 142 102 152 110 19 14 19 16 3 40 -16 25 -16 27 3 37 15 8 21 6 30 -10 13 -24 27 -25 49 -6 23 21 73 46 93 46 9 0 28 -5 42 -12z m3534 -160 c10 -7 70 -62 134 -122 111 -103 117 -111 101 -128 -15 -17 -22 -12 -125 85 -134 126 -170 151 -198 142 -28 -9 -42 -48 -34 -94 5 -29 27 -56 123 -148 111 -107 115 -112 98 -130 -16 -17 -20 -14 -90 53 -156 151 -184 174 -216 174 -39 0 -55 -29 -48 -88 4 -41 12 -51 122 -155 104 -98 115 -112 101 -125 -20 -20 -29 -14 -196 146 -120 115 -133 131 -121 146 13 15 16 15 39 -6 l25 -23 -5 29 c-14 75 32 133 100 124 l38 -6 -4 34 c-12 97 81 151 156 92z m-3371 -24 c28 -17 56 -71 49 -90 -9 -23 -33 -16 -40 11 -8 30 -49 59 -73 50 -10 -3 -33 -19 -52 -35 l-33 -28 27 -36 c25 -33 27 -56 4 -56 -5 0 -22 14 -37 30 l-27 31 -125 -112 c-69 -61 -134 -120 -146 -130 -20 -19 -21 -19 -37 -1 -16 18 -11 25 127 148 142 126 145 129 130 152 -12 19 -13 26 -3 38 11 14 15 13 30 -7 l17 -23 38 30 c75 58 98 63 151 28z m44 -279 c37 -20 69 -70 69 -109 0 -37 -30 -99 -71 -149 l-31 -38 -83 76 c-46 41 -87 75 -93 75 -13 0 -62 -98 -62 -123 0 -31 63 -87 99 -87 24 0 31 -4 31 -20 0 -16 -7 -20 -37 -20 -74 0 -133 63 -133 141 0 58 29 113 95 181 79 81 152 105 216 73z m2909 -85 c0 -15 -7 -20 -25 -20 -65 0 -114 -55 -95 -105 15 -39 51 -51 111 -37 90 21 133 16 168 -20 54 -55 51 -125 -7 -181 -33 -32 -72 -47 -118 -47 -54 0 -41 30 19 45 88 22 121 82 77 138 -29 37 -49 40 -130 21 -58 -13 -77 -14 -101 -4 -122 51 -69 229 69 230 25 0 32 -4 32 -20z m-2603 -139 c79 -36 94 -116 42 -219 -17 -34 -35 -62 -40 -62 -5 0 -52 27 -104 60 -104 65 -99 66 -124 -13 -25 -75 9 -125 93 -137 28 -3 42 -10 44 -22 3 -15 -4 -18 -46 -18 -92 0 -159 72 -148 158 12 93 119 241 189 261 45 13 47 13 94 -8z m956 -152 c23 -37 -25 -68 -52 -35 -9 11 -10 20 -1 36 13 24 38 23 53 -1z m1173 -10 c12 -12 42 -69 65 -128 57 -143 77 -181 94 -181 8 0 15 -9 15 -20 0 -25 -35 -27 -61 -4 -16 14 -19 13 -34 -19 -17 -36 -65 -67 -105 -67 -66 0 -127 85 -117 163 6 48 55 98 114 118 31 10 34 14 28 38 -3 14 -14 37 -24 51 -26 36 -85 33 -135 -5 -31 -23 -39 -26 -46 -14 -12 18 23 56 75 81 48 22 98 18 131 -13z m-756 -100 l12 -121 19 32 c25 40 82 65 122 53 62 -17 78 -73 102 -339 6 -77 6 -81 -14 -87 -12 -3 -23 -2 -25 1 -2 4 -11 79 -21 167 -9 88 -22 171 -28 185 -23 48 -85 38 -123 -20 l-26 -39 16 -141 c21 -184 21 -180 -9 -180 -14 0 -25 6 -25 13 0 6 -14 137 -31 290 -17 153 -28 284 -25 292 3 8 14 15 24 15 17 0 20 -14 32 -121z m-967 64 c3 -5 -1 -73 -9 -153 -22 -239 -24 -237 68 -55 44 88 81 161 83 163 1 2 15 0 30 -4 l28 -7 -6 -91 c-4 -50 -9 -134 -13 -186 l-6 -95 82 166 c69 140 85 166 101 162 10 -3 19 -9 19 -14 0 -5 -42 -94 -94 -198 -90 -179 -96 -188 -121 -184 -14 3 -28 9 -31 14 -5 8 5 157 21 324 4 47 0 42 -81 -118 -83 -165 -86 -169 -112 -162 -15 4 -29 8 -31 11 -4 3 14 263 25 377 5 47 9 57 24 57 11 0 21 -3 23 -7z m727 -78 l0 -55 46 0 c38 0 45 -3 42 -17 -2 -13 -15 -19 -46 -21 l-42 -3 2 -172 3 -172 50 0 c58 0 74 -23 30 -43 -33 -15 -60 -15 -88 0 -44 23 -46 35 -47 216 l0 172 -30 0 c-23 0 -30 4 -30 20 0 16 7 20 30 20 30 0 30 1 30 55 0 52 1 55 25 55 24 0 25 -3 25 -55z m-200 -52 c0 -5 -12 -101 -27 -215 -24 -185 -29 -208 -45 -208 -10 0 -21 7 -24 15 -3 7 6 101 20 207 14 106 26 196 26 201 0 4 11 7 25 7 14 0 25 -3 25 -7z" fill="#7c4e29"/>
<path d="M5092 5495 c-61 -19 -82 -41 -82 -85 0 -43 14 -60 50 -60 53 0 100 61 100 130 0 34 -5 35 -68 15z" fill="#7c4e29"/>
<path d="M6309 5297 c-39 -26 -96 -115 -105 -165 -13 -68 32 -123 88 -109 78 20 160 178 132 252 -6 15 -53 45 -72 45 -5 0 -24 -10 -43 -23z" fill="#7c4e29"/>
<path d="M3510 5133 c-86 -33 -53 -165 63 -250 67 -50 145 -12 134 66 -12 93 -135 208 -197 184z" fill="#7c4e29"/>
<path d="M7143 4488 c-13 -6 -23 -15 -23 -20 0 -15 81 -138 92 -138 5 0 23 13 39 29 75 75 -10 176 -108 129z" fill="#7c4e29"/>
<path d="M2914 4472 c-29 -4 -52 -31 -60 -69 -5 -26 0 -37 32 -72 l37 -42 27 43 c59 96 64 108 54 118 -14 14 -64 27 -90 22z" fill="#7c4e29"/>
<path d="M4164 4016 c-38 -38 -41 -53 -18 -97 55 -108 469 -168 809 -117 173 25 295 89 295 153 0 30 -61 100 -82 93 -24 -8 -20 -44 6 -62 31 -20 33 -40 5 -59 -19 -14 -26 -13 -75 10 -198 90 -644 90 -827 -1 -40 -20 -53 -22 -68 -13 -31 19 -30 37 3 67 26 24 29 31 18 44 -18 23 -28 20 -66 -18z" fill="#7c4e29"/>
<path d="M5633 3550 c-52 -11 -80 -25 -115 -58 l-28 -26 0 -317 c0 -313 0 -318 21 -324 42 -14 118 -6 161 16 143 73 190 167 204 409 8 139 -8 211 -60 267 -29 32 -39 36 -87 39 -30 2 -73 -1 -96 -6z" fill="#7c4e29"/>
<path d="M7353 4062 c-9 -6 -4 -27 19 -85 36 -87 49 -91 101 -35 24 25 28 36 23 62 -8 43 -40 66 -90 66 -22 0 -46 -4 -53 -8z" fill="#7c4e29"/>
<path d="M7230 2360 c-49 -49 -30 -111 48 -153 l49 -26 29 81 c16 45 30 85 32 89 4 10 -65 29 -105 29 -20 0 -41 -8 -53 -20z" fill="#7c4e29"/>
<path d="M2873 2015 c-119 -58 -157 -132 -97 -192 22 -22 32 -25 75 -21 63 6 169 59 208 104 39 43 41 85 6 119 -37 38 -101 34 -192 -10z" fill="#7c4e29"/>
<path d="M3505 1331 c-16 -10 -38 -27 -47 -38 -17 -19 -16 -21 48 -76 36 -31 70 -57 74 -57 17 0 60 86 60 118 0 65 -71 93 -135 53z" fill="#7c4e29"/>
<path d="M3825 1110 c-17 -10 -40 -32 -52 -48 l-22 -30 75 -46 c41 -25 78 -46 83 -46 8 0 34 56 46 97 7 24 -9 61 -34 80 -23 18 -62 15 -96 -7z" fill="#7c4e29"/>
<path d="M6034 821 c-73 -33 -92 -86 -54 -148 25 -42 52 -56 83 -44 58 22 72 86 37 165 -12 25 -22 46 -23 46 -1 0 -21 -9 -43 -19z" fill="#7c4e29"/>
</g>
</svg>